#!OML:ASF E:\motion texture\Top Level 1\Subject 1\Session 1\male.ASF
:FULLY-SPECIFIED
:DEGREES
411
root 10.3782 17.336 8.58666 -435.106 -84.5556 442.918
lowerback 6.1813 -4.82248 7.55431
upperback 1.86729 -6.92164 15.1376
thorax -0.342461 -4.01867 12.6492
lowerneck 5.64842 -19.5239 -18.3348
upperneck 15.4626 -34.156 23.3992
head 11.5516 -16.2202 6.34223
rclavicle 1.11319e-014 -5.40694e-014
rhumerus -11.2348 -35.6961 -49.2718
rradius 15.0832
rwrist 37.1172
rhand -14.3476 -30.3012
rfingers 7.12502
rthumb 11.7939 -59.9491
lclavicle 1.11319e-014 -5.40694e-014
lhumerus -22.7299 3.66748 71.4391
lradius 50.8783
lwrist -27.4836
lhand -19.9707 18.9145
lfingers 7.12502
lthumb 6.36815 48.7987
rfemur -40.3372 1.46975 3.12003
rtibia 32.9055
rfoot -2.62737 -5.47147
rtoes 0.324261
lfemur -5.29088 0.474913 -29.9031
ltibia 36.4683
lfoot -16.2051 -6.3049
ltoes -13.8396
412
root 10.2105 17.3416 8.58744 -438.419 -84.4799 446.334
lowerback 6.25497 -4.82278 7.82809
upperback 1.84648 -6.92009 15.3071
thorax -0.409793 -4.02953 12.7085
lowerneck 5.81631 -19.5873 -18.3142
upperneck 15.2742 -34.2334 23.428
head 11.4703 -16.265 6.35101
rclavicle -2.06736e-014 -2.38542e-013
rhumerus -11.5017 -36.2529 -48.8616
rradius 15.1286
rwrist 36.9993
rhand -14.6938 -30.6462
rfingers 7.12502
rthumb 11.4601 -60.313
lclavicle -2.06736e-014 -2.38542e-013
lhumerus -23.5463 3.86093 71.0581
lradius 50.1976
lwrist -27.4091
lhand -19.9359 18.9617
lfingers 7.12502
lthumb 6.40169 48.8449
rfemur -40.3723 1.76508 3.13847
rtibia 33.4657
rfoot -2.84898 -5.17906
rtoes 0.855337
lfemur -5.48838 0.733913 -29.9407
ltibia 37.2725
lfoot -15.2713 -6.53962
ltoes -14.2829
413
root 10.0413 17.3486 8.58736 -441.699 -84.3955 449.71
lowerback 6.32869 -4.82031 8.10224
upperback 1.82878 -6.91457 15.4701
thorax -0.475285 -4.03834 12.7601
lowerneck 5.98507 -19.6489 -18.2906
upperneck 15.0797 -34.3062 23.4602
head 11.3861 -16.3082 6.36213
rclavicle 1.43125e-014 -1.84472e-013
rhumerus -11.8127 -36.737 -48.4402
rradius 15.1922
rwrist 36.8172
rhand -14.9959 -30.9721
rfingers 7.12502
rthumb 11.1687 -60.6549
lclavicle 1.43125e-014 -1.84472e-013
lhumerus -24.3964 4.05428 70.7431
lradius 49.5194
lwrist -27.3362
lhand -19.9012 19.0027
lfingers 7.12502
lthumb 6.43515 48.8849
rfemur -40.3712 2.06952 3.16736
rtibia 34.0274
rfoot -3.09504 -4.89306
rtoes 1.36785
lfemur -5.72095 1.00039 -29.9597
ltibia 38.1144
lfoot -14.276 -6.73846
ltoes -14.6819
414
root 9.8705 17.3569 8.58639 -444.918 -84.3019 453.019
lowerback 6.40333 -4.81579 8.37471
upperback 1.81364 -6.9059 15.6267
thorax -0.539627 -4.04552 12.8053
lowerneck 6.15628 -19.7089 -18.2655
upperneck 14.8794 -34.3756 23.4976
head 11.2998 -16.3505 6.37617
rclavicle -1.43125e-014 -1.90833e-014
rhumerus -12.1668 -37.1487 -48.0065
rradius 15.2712
rwrist 36.5722
rhand -15.2573 -31.281
rfingers 7.12502
rthumb 10.9166 -60.9772
lclavicle -1.43125e-014 -1.90833e-014
lhumerus -25.2754 4.25496 70.4937
lradius 48.844
lwrist -27.2673
lhand -19.8604 19.0428
lfingers 7.12502
lthumb 6.47455 48.9239
rfemur -40.3308 2.38184 3.20568
rtibia 34.5829
rfoot -3.36831 -4.61638
rtoes 1.87581
lfemur -5.98788 1.27329 -29.9599
ltibia 38.9924
lfoot -13.2288 -6.8954
ltoes -15.0383
415
root 9.69836 17.3664 8.58455 -448.057 -84.2015 456.239
lowerback 6.47625 -4.80956 8.64767
upperback 1.80262 -6.89511 15.7762
thorax -0.599783 -4.05156 12.8417
lowerneck 6.33103 -19.7672 -18.2383
upperneck 14.6725 -34.4421 23.5428
head 11.2115 -16.3921 6.39397
rclavicle 2.22639e-014 -1.27222e-013
rhumerus -12.5627 -37.4888 -47.5624
rradius 15.365
rwrist 36.2671
rhand -15.481 -31.565
rfingers 7.12502
rthumb 10.7009 -61.2725
lclavicle 2.22639e-014 -1.27222e-013
lhumerus -26.1776 4.46374 70.3063
lradius 48.1748
lwrist -27.1991
lhand -19.8156 19.0773
lfingers 7.12502
lthumb 6.5178 48.957
rfemur -40.2497 2.69847 3.25624
rtibia 35.1262
rfoot -3.67004 -4.34739
rtoes 2.37485
lfemur -6.28949 1.55078 -29.9393
ltibia 39.905
lfoot -12.1393 -7.00801
ltoes -15.3374
416
root 9.52506 17.3771 8.58191 -451.174 -84.0948 459.429
lowerback 6.55115 -4.79997 8.91802
upperback 1.79552 -6.87969 15.9196
thorax -0.657953 -4.05526 12.8724
lowerneck 6.50631 -19.8244 -18.2115
upperneck 14.4624 -34.5077 23.5949
head 11.124 -16.4337 6.41439
rclavicle 3.81667e-014 1.46306e-013
rhumerus -12.9971 -37.7593 -47.1074
rradius 15.468
rwrist 35.9147
rhand -15.6701 -31.8305
rfingers 7.12502
rthumb 10.5184 -61.5474
lclavicle 3.81667e-014 1.46306e-013
lhumerus -27.1009 4.68763 70.1794
lradius 47.5141
lwrist -27.1322
lhand -19.763 19.1035
lfingers 7.12502
lthumb 6.5686 48.9816
rfemur -40.1292 3.02463 3.31916
rtibia 35.6495
rfoot -3.99444 -4.08445
rtoes 2.85399
lfemur -6.62755 1.83616 -29.8983
ltibia 40.8483
lfoot -11.0216 -7.07077
ltoes -15.5905
417
root 9.35075 17.3889 8.57847 -454.233 -83.9819 462.554
lowerback 6.62688 -4.78789 9.18567
upperback 1.79272 -6.86089 16.056
thorax -0.712976 -4.05719 12.8961
lowerneck 6.6852 -19.8806 -18.1843
upperneck 14.2462 -34.5726 23.6569
head 11.036 -16.4755 6.43876
rclavicle -3.81667e-014 5.725e-014
rhumerus -13.469 -37.9666 -46.6425
rradius 15.5785
rwrist 35.5262
rhand -15.8302 -32.0712
rfingers 7.12502
rthumb 10.364 -61.7958
lclavicle -3.81667e-014 5.725e-014
lhumerus -28.0391 4.92887 70.1092
lradius 46.8621
lwrist -27.0682
lhand -19.6994 19.1245
lfingers 7.12502
lthumb 6.63002 49.0007
rfemur -39.967 3.3555 3.39454
rtibia 36.1478
rfoot -4.3434 -3.82514
rtoes 3.30831
lfemur -7.00114 2.1274 -29.8369
ltibia 41.8207
lfoot -9.88799 -7.08442
ltoes -15.7986
418
root 9.17554 17.4017 8.57425 -457.231 -83.8642 465.608
lowerback 6.70305 -4.77351 9.45048
upperback 1.79416 -6.83911 16.1855
thorax -0.764542 -4.05753 12.9132
lowerneck 6.86758 -19.9355 -18.1566
upperneck 14.0251 -34.6368 23.7285
head 10.9482 -16.5175 6.46687
rclavicle -1.90833e-014 -2.3218e-013
rhumerus -13.9771 -38.113 -46.1684
rradius 15.695
rwrist 35.1147
rhand -15.964 -32.2874
rfingers 7.12502
rthumb 10.2349 -62.0184
lclavicle -1.90833e-014 -2.3218e-013
lhumerus -28.9874 5.19099 70.0918
lradius 46.2182
lwrist -27.0096
lhand -19.6269 19.136
lfingers 7.12502
lthumb 6.70003 49.01
rfemur -39.7629 3.689 3.48425
rtibia 36.6161
rfoot -4.71505 -3.56908
rtoes 3.73553
lfemur -7.40993 2.42522 -29.7534
ltibia 42.818
lfoot -8.74996 -7.05031
ltoes -15.9556
419
root 8.99959 17.4154 8.5693 -460.174 -83.7412 468.598
lowerback 6.77998 -4.75689 9.71056
upperback 1.80045 -6.81463 16.3083
thorax -0.811916 -4.05644 12.9247
lowerneck 7.05181 -19.9895 -18.1297
upperneck 13.8004 -34.7009 23.8094
head 10.8614 -16.56 6.49833
rclavicle 2.54444e-014 -6.36111e-014
rhumerus -14.5165 -38.2018 -45.6875
rradius 15.8155
rwrist 34.6899
rhand -16.0738 -32.4755
rfingers 7.12502
rthumb 10.129 -62.2117
lclavicle 2.54444e-014 -6.36111e-014
lhumerus -29.9407 5.47864 70.1237
lradius 45.5824
lwrist -26.9595
lhand -19.5468 19.1354
lfingers 7.12502
lthumb 6.77734 49.0069
rfemur -39.5151 4.02528 3.58701
rtibia 37.0479
rfoot -5.10745 -3.31593
rtoes 4.13516
lfemur -7.8528 2.72998 -29.6494
ltibia 43.8357
lfoot -7.62587 -6.97002
ltoes -16.0766
420
root 8.82315 17.43 8.56362 -463.046 -83.6134 471.509
lowerback 6.85707 -4.73812 9.9646
upperback 1.81063 -6.78746 16.4241
thorax -0.855671 -4.05385 12.931
lowerneck 7.23869 -20.0427 -18.1032
upperneck 13.5717 -34.7655 23.9005
head 10.7758 -16.6031 6.53337
rclavicle 1.74931e-014 1.04958e-013
rhumerus -15.0867 -38.2344 -45.2008
rradius 15.9408
rwrist 34.2587
rhand -16.1545 -32.631
rfingers 7.12502
rthumb 10.0511 -62.371
lclavicle 1.74931e-014 1.04958e-013
lhumerus -30.8949 5.79395 70.2003
lradius 44.9549
lwrist -26.9207
lhand -19.4559 19.1202
lfingers 7.12502
lthumb 6.86508 48.9889
rfemur -39.2259 4.36127 3.70255
rtibia 37.4411
rfoot -5.5189 -3.06635
rtoes 4.50755
lfemur -8.33115 3.04048 -29.5254
ltibia 44.87
lfoot -6.52745 -6.84611
ltoes -16.1573
421
root 8.64626 17.4453 8.55728 -465.865 -83.4812 474.359
lowerback 6.93403 -4.71685 10.2126
upperback 1.82594 -6.7575 16.5328
thorax -0.894318 -4.04971 12.9317
lowerneck 7.4262 -20.0954 -18.0769
upperneck 13.3404 -34.8308 24.0013
head 10.6922 -16.6469 6.5714
rclavicle -3.33958e-014 5.08889e-014
rhumerus -15.6843 -38.2208 -44.7097
rradius 16.0694
rwrist 33.8331
rhand -16.2045 -32.7463
rfingers 7.12502
rthumb 10.0028 -62.4886
lclavicle -3.33958e-014 5.08889e-014
lhumerus -31.8441 6.13816 70.3167
lradius 44.3345
lwrist -26.8955
lhand -19.3495 19.0941
lfingers 7.12502
lthumb 6.96779 48.9594
rfemur -38.8942 4.69748 3.83189
rtibia 37.792
rfoot -5.94879 -2.82076
rtoes 4.85991
lfemur -8.84156 3.35798 -29.3815
ltibia 45.9144
lfoot -5.46938 -6.6812
ltoes -16.2014
